<svg xmlns="http://www.w3.org/2000/svg" fill="none" viewBox="0 0 128 128">
  <path fill="#0EA5E9" d="M50.4 78.5a75.1 75.1 0 0 0-28.5 6.9l24.2-65.7c.7-2 3.1-2.6 4.8-1.2l31.9 30.1c1 1 1.2 2.3.6 3.4-1.4 2.5-5.7 5.3-14.2 8.2-8.4 3-14.5 11.3-13.8 20.2l24.4 13.7a2 2 0 0 1-.4 3.7l-31 8.5c-1.3.3-2.7-.5-3-1.8l-2.5-14.9c-.3-2 .7-4 2.5-5.1Z"/>
  <path fill="#0284C7" d="M44 77.1a74.7 74.7 0 0 1 28.9-6.8l-24-65.7c-.7-2-3.1-2.6-4.8-1.2L12 33.5c-1 1-1.2 2.2-.6 3.4 1.4 2.5 5.7 5.3 14.2 8.2 8.4 3 14.5 11.3 13.8 20.2L15 79c-.6.4-.3 1.3.4 1.2l31-8.5c1.3-.3 2.7.5 3 1.8l2.5 14.9c.3 2-.7 4-2.5 5.1Z"/>
</svg>